<svg width="32" height="38" viewBox="0 0 32 38" fill="none" xmlns="http://www.w3.org/2000/svg">
<path d="M30.4545 15.7273C30.4545 27.1818 15.7273 37 15.7273 37C15.7273 37 1 27.1818 1 15.7273C1 11.8214 2.55162 8.07542 5.31352 5.31352C8.07542 2.55162 11.8214 1 15.7273 1C19.6332 1 23.3791 2.55162 26.141 5.31352C28.9029 8.07542 30.4545 11.8214 30.4545 15.7273Z" stroke="#FA5151" stroke-opacity="0.8" stroke-width="2" stroke-linecap="round" stroke-linejoin="round"/>
<path d="M15.7272 20.6364C18.4384 20.6364 20.6363 18.4385 20.6363 15.7273C20.6363 13.0161 18.4384 10.8182 15.7272 10.8182C13.016 10.8182 10.8181 13.0161 10.8181 15.7273C10.8181 18.4385 13.016 20.6364 15.7272 20.6364Z" stroke="#FA5151" stroke-opacity="0.8" stroke-width="2" stroke-linecap="round" stroke-linejoin="round"/>
</svg>
