<svg width="38" height="38" viewBox="0 0 38 38" fill="none" xmlns="http://www.w3.org/2000/svg">
<path d="M36.9276 27.9529V33.3724C36.9296 33.8755 36.8266 34.3735 36.625 34.8344C36.4234 35.2954 36.1278 35.7092 35.7571 36.0493C35.3864 36.3895 34.9487 36.6484 34.4721 36.8096C33.9955 36.9708 33.4905 37.0306 32.9894 36.9853C27.4306 36.3813 22.0909 34.4818 17.3995 31.4394C13.0347 28.6659 9.33413 24.9653 6.56057 20.6005C3.50757 15.8878 1.60763 10.5221 1.01466 4.93831C0.96952 4.43876 1.02889 3.93528 1.18899 3.45993C1.34909 2.98458 1.60641 2.54777 1.94458 2.17732C2.28274 1.80687 2.69434 1.51089 3.15316 1.30822C3.61198 1.10556 4.10798 1.00065 4.60957 1.00018H10.029C10.9057 0.991547 11.7556 1.302 12.4204 1.87367C13.0851 2.44534 13.5193 3.23922 13.642 4.10733C13.8707 5.84167 14.2949 7.54457 14.9065 9.18355C15.1496 9.83013 15.2022 10.5328 15.0581 11.2084C14.914 11.884 14.5793 12.5041 14.0936 12.9952L11.7994 15.2895C14.371 19.8121 18.1157 23.5567 22.6383 26.1284L24.9325 23.8341C25.4237 23.3484 26.0438 23.0137 26.7193 22.8696C27.3949 22.7256 28.0976 22.7782 28.7442 23.0212C30.3832 23.6328 32.0861 24.057 33.8204 24.2858C34.6979 24.4096 35.4994 24.8516 36.0723 25.5277C36.6451 26.2038 36.9495 27.067 36.9276 27.9529Z" stroke="#FA5151" stroke-opacity="0.8" stroke-width="2" stroke-linecap="round" stroke-linejoin="round"/>
</svg>
